<?xml version="1.0" encoding="UTF-8" standalone="no"?>
<!DOCTYPE svg PUBLIC "-//W3C//DTD SVG 1.1//EN" "http://www.w3.org/Graphics/SVG/1.1/DTD/svg11.dtd">
<svg version="1.1" xmlns="http://www.w3.org/2000/svg" xmlns:xlink="http://www.w3.org/1999/xlink" preserveAspectRatio="xMidYMid meet" viewBox="274.187431460205 241.82389580759568 58.423463032151915 77.72315068169397" width="54.42" height="73.72"><defs><path d="M293.33 253.67C294.59 246.94 299.03 242.12 303.24 242.91C307.45 243.7 309.84 249.79 308.58 256.52C307.31 263.25 302.88 268.07 296.75 277.54C294.46 266.49 292.07 260.4 293.33 253.67Z" id="aAxTZuisj"></path><path d="M314.76 261.39C321.06 258.7 327.53 259.72 329.21 263.66C330.89 267.6 327.14 272.97 320.85 275.65C314.55 278.34 308.08 277.32 296.8 277.48C304.72 269.44 308.46 264.07 314.76 261.39Z" id="a9AKpfW7JN"></path><path d="M278.67 279.88C283.68 271.21 293.74 267.64 301.13 271.91C308.53 276.18 310.47 286.67 305.46 295.35C300.45 304.02 290.39 307.59 275.36 316.55C275.6 299.05 273.67 288.56 278.67 279.88Z" id="a2yncXoFcB"></path></defs><g><g><use xlink:href="#aAxTZuisj" opacity="1" fill="#538118" fill-opacity="1"></use></g><g><use xlink:href="#a9AKpfW7JN" opacity="1" fill="#538118" fill-opacity="1"></use></g><g><use xlink:href="#a2yncXoFcB" opacity="1" fill="#ff8d00" fill-opacity="1"></use></g></g></svg>
